PathFileType	4	(X/Y/Z)	./resultDataOpenSim/trcMotMarkerGrf/sub09/qtm-15-08.trc
DataRate	CameraRate	NumFrames	NumMarkers	Units	OrigDataRate	OrigDataStartFrame	OrigNumFrames
250.000000	250.000000	8	24	m	250.000000	234	466
Frame#	Time	L.Toe.Tip			R.Toe.Tip			L.Ankle.Lat			R.Ankle.Lat			L.Ankle.Med			R.Ankle.Med			L.Heel			R.Heel			L.Knee.Lat			R.Knee.Lat			L.Knee.Med			R.Knee.Med			L.Thigh.Upper			R.Thigh.Upper			L.ASIS			R.ASIS			V.Sacral			L.Acromium			R.Acromium			C7			L.Elbow			R.Elbow			L.Wrist.Lat			R.Wrist.Lat
		X1	Y1	Z1	X2	Y2	Z2	X3	Y3	Z3	X4	Y4	Z4	X5	Y5	Z5	X6	Y6	Z6	X7	Y7	Z7	X8	Y8	Z8	X9	Y9	Z9	X10	Y10	Z10	X11	Y11	Z11	X12	Y12	Z12	X13	Y13	Z13	X14	Y14	Z14	X15	Y15	Z15	X16	Y16	Z16	X17	Y17	Z17	X18	Y18	Z18	X19	Y19	Z19	X20	Y20	Z20	X21	Y21	Z21	X22	Y22	Z22	X23	Y23	Z23	X24	Y24	Z24

234	0.932	0.1304979	-0.059657465	0.022258499	0.36455942	0.1415622	0.093182659	0.0034900679	-0.00047370583	-0.056591415	0.22856877	0.19283234	0.11345579	0.0095381209	0.023793407	0.040376643	0.25652796	0.21909952	0.019373317	-0.079619377	-0.016232903	-0.025535438	0.15720806	0.18471381	0.060628066	0.15045261	0.3891044	-0.10834916	0.46691974	0.55336748	0.15583625	0.13529661	0.39648977	0.014962427	0.46705629	0.54849777	0.028672566	0.16873381	0.81412414	-0.16971779	0.17874142	0.83214192	0.202201	0.26433124	0.89347525	-0.11012452	0.25332229	0.90879902	0.12885097	0.098324327	0.96863997	-0.00076272881	0.32872386	1.3417441	-0.15042949	0.24428665	1.3721349	0.16599012	0.22025632	1.4083345	-0.011620589	0.2496553	0.97283069	-0.22728988	0.043250917	1.0726087	0.24727518	0.49405026	0.85153524	-0.21069381	0.12913323	0.82540334	0.32606215
235	0.936	0.13075458	-0.059591438	0.022162061	0.38630341	0.14126124	0.091004321	0.004144715	0.0011547855	-0.056711388	0.24862549	0.18764155	0.11212998	0.010630638	0.025274797	0.040312663	0.27505054	0.21532458	0.018274987	-0.07904437	-0.013915574	-0.02513425	0.17766521	0.17737284	0.059596826	0.15142221	0.39069301	-0.10865957	0.47521968	0.55706983	0.15437811	0.13690348	0.39784526	0.014834226	0.47480584	0.55200801	0.027617669	0.17373923	0.81524174	-0.16971098	0.18570551	0.83425569	0.20218793	0.27005532	0.89415557	-0.11072797	0.26014209	0.91021622	0.12818426	0.104412	0.97026745	-0.0011114304	0.33572026	1.3426588	-0.15087376	0.25290826	1.3731015	0.16589695	0.22799584	1.4094709	-0.011624533	0.25793633	0.97306439	-0.22710167	0.050563017	1.0752033	0.24737828	0.50478663	0.85673736	-0.20896181	0.1321263	0.82675994	0.32677025
236	0.94	0.13100949	-0.059522101	0.02207431	0.4079963	0.14108197	0.088862974	0.0047844788	0.0028165932	-0.056828069	0.26874041	0.18259738	0.11073628	0.011724909	0.0267634	0.040254719	0.29377844	0.21151985	0.017067737	-0.078306065	-0.011584145	-0.024797166	0.19823288	0.17013413	0.058416161	0.15245874	0.39227946	-0.10893962	0.48315899	0.56049066	0.15285529	0.13864618	0.39919209	0.014674103	0.48247733	0.55522466	0.026523806	0.17861529	0.81629881	-0.16952936	0.1926206	0.83631802	0.202186	0.27583028	0.89477908	-0.11126612	0.26695301	0.91160897	0.12758357	0.11058469	0.97184736	-0.0013875785	0.34272524	1.3435683	-0.1513312	0.26152328	1.3740293	0.16578327	0.23571296	1.4105695	-0.01164336	0.26625875	0.97327893	-0.22676171	0.057877888	1.0777643	0.24750455	0.51533457	0.86195919	-0.20723559	0.13511132	0.82811447	0.32740562
237	0.944	0.13126304	-0.05945176	0.022007319	0.42962674	0.14104661	0.086778482	0.0054306437	0.0045254114	-0.056925995	0.28899724	0.17767179	0.10925486	0.012849376	0.028280519	0.040227814	0.31272223	0.20773056	0.015727042	-0.077419704	-0.0092172575	-0.024473595	0.21896662	0.16300213	0.057072003	0.15348308	0.3938613	-0.10920294	0.49090755	0.56367004	0.15143057	0.14049902	0.40058227	0.014490523	0.49002457	0.55814049	0.025445047	0.18339466	0.81730337	-0.16920943	0.19949965	0.83832387	0.20220572	0.28159235	0.89533369	-0.11177088	0.27375908	0.91297287	0.12705638	0.11687834	0.9733637	-0.0015432936	0.34974802	1.3444677	-0.15180231	0.27013443	1.3749154	0.16565169	0.2433968	1.4116343	-0.011659875	0.27455179	0.9734803	-0.2263899	0.065208918	1.0802788	0.24765485	0.52570344	0.86719237	-0.20552339	0.13816137	0.82948818	0.32799542
238	0.948	0.13152088	-0.059383098	0.021974234	0.45117575	0.14116296	0.084782602	0.0061079636	0.0062815103	-0.056964225	0.30942623	0.17284416	0.10767574	0.014031444	0.029839251	0.040242029	0.33187815	0.20398992	0.014259936	-0.076460116	-0.0067928424	-0.024111229	0.2399207	0.15598319	0.055510133	0.15449875	0.39545154	-0.10945376	0.4986216	0.56664071	0.15022803	0.14233633	0.40203094	0.014378005	0.49736978	0.56075003	0.024441232	0.18819188	0.81826798	-0.16885862	0.20635195	0.84027154	0.20225286	0.28731446	0.89581947	-0.11226036	0.28056429	0.91430639	0.12660039	0.12328931	0.97481694	-0.0016350029	0.35679911	1.3453543	-0.15228868	0.27872915	1.3757587	0.16549716	0.25104306	1.4126666	-0.011656523	0.28274646	0.97367772	-0.22610019	0.07257374	1.0827305	0.24781669	0.5358981	0.87242456	-0.20382658	0.14134014	0.83089431	0.32856527
239	0.952	0.13179198	-0.059315347	0.021983129	0.47261222	0.14140925	0.082905028	0.0068303798	0.0080703234	-0.056909567	0.32996565	0.16812723	0.10600682	0.015278549	0.031431803	0.040295381	0.35123519	0.20031734	0.012674229	-0.07548965	-0.0043137807	-0.023702853	0.26108636	0.14910906	0.05371471	0.155585	0.39706721	-0.10967171	0.50632082	0.5694005	0.14924414	0.14412266	0.40349274	0.014398012	0.50448288	0.56305468	0.023531801	0.19313476	0.81920736	-0.16860015	0.21317687	0.84215996	0.20233087	0.29304475	0.89625489	-0.11271776	0.28737426	0.91560821	0.1262082	0.12980202	0.97621805	-0.0017170288	0.36388945	1.3462264	-0.15278871	0.28729874	1.3765584	0.16531597	0.25866298	1.4136649	-0.011628365	0.29081503	0.97386946	-0.22591027	0.079978029	1.0851086	0.2479774	0.54591501	0.87764395	-0.20214242	0.14466605	0.83232981	0.32911741
240	0.956	0.13208104	-0.059243328	0.022030948	0.49390256	0.14174162	0.081156357	0.0075960143	0.0098754556	-0.05675977	0.35049077	0.16356846	0.10425982	0.016581909	0.033030203	0.040389002	0.37076022	0.19672565	0.010972206	-0.074519299	-0.0018005454	-0.023248547	0.28237957	0.14244592	0.051746897	0.15682223	0.39870257	-0.10982888	0.51391087	0.57191445	0.14838795	0.14592424	0.40491166	0.01450973	0.51139009	0.56505787	0.022698238	0.1983032	0.82013146	-0.16851107	0.21996348	0.84398617	0.20243663	0.29888316	0.89666895	-0.113093	0.29419569	0.91687603	0.12587301	0.13639554	0.97757498	-0.0017995419	0.37102214	1.3470815	-0.15329464	0.29584849	1.377311	0.16511227	0.26629312	1.4146201	-0.011613451	0.29876051	0.97404409	-0.22576881	0.087405369	1.0874136	0.24815518	0.55575142	0.882842	-0.20047565	0.14814042	0.83378674	0.32963964
241	0.96	0.13238338	-0.059163035	0.022103607	0.51502763	0.14212174	0.079526956	0.0083936124	0.011689101	-0.056524975	0.37091121	0.15921182	0.10243557	0.017933081	0.034611425	0.040528244	0.39037582	0.19323212	0.0091729042	-0.073529554	0.00072944655	-0.022745741	0.30371247	0.13605755	0.049683757	0.15823522	0.40033155	-0.10991149	0.52126777	0.57413394	0.14755344	0.14780022	0.40627482	0.014627028	0.51813287	0.56675523	0.021911931	0.20365978	0.82103636	-0.16855016	0.2267012	0.84574578	0.20256162	0.30487083	0.89707347	-0.11337189	0.30103281	0.91810362	0.12558892	0.14304712	0.97888405	-0.0018576669	0.37818879	1.3479147	-0.15379372	0.30437992	1.3780102	0.16489245	0.27398691	1.4155174	-0.011701383	0.30660522	0.97420472	-0.22564177	0.094811899	1.0896584	0.24842938	0.56541163	0.88801209	-0.19883588	0.15177498	0.83525759	0.33012356
